# xmcd
#
# Track frame offsets:
#	150
#	19022
#	38597
#	52472
#	70972
#	87745
#	109605
#	133497
#	152740
#	174047
#	186150
#
# Disc length: 2878 seconds
#
# Revision: 1
# Processed by: cddbd v1.5.2PL0 Copyright (c) Steve Scherf et al.
# Submitted via: audiograbber 1.83.01
#
DISCID=980b3c0b
DTITLE=Willie "Big Eyes" Smith - Way back
DYEAR=2005
DGENRE=Blues
TTITLE0=Don't say that no more
TTITLE1=I don't trust you man
TTITLE2=Read way back
TTITLE3=Tell me mama
TTITLE4=If you don't believe I'm leaving
TTITLE5=Lowdown blues
TTITLE6=Woman's world
TTITLE7=Don't start me talking
TTITLE8=Blues and trouble
TTITLE9=I want you to love me
TTITLE10=Eye to eye
EXTD=
EXTT0=
EXTT1=
EXTT2=
EXTT3=
EXTT4=
EXTT5=
EXTT6=
EXTT7=
EXTT8=
EXTT9=
EXTT10=
PLAYORDER=
